<svg id="Layer_1" data-name="Layer 1" xmlns="http://www.w3.org/2000/svg" viewBox="0 0 1278.83 1290.54"><defs><style>.cls-1,.cls-3,.cls-4{fill:#7eb49d;}.cls-2{fill:none;stroke:#7eb49d;stroke-linecap:round;stroke-linejoin:round;stroke-width:6.9px;}.cls-3{font-size:86.23px;font-family:a Papa;}.cls-4{font-size:76.98px;font-family:Throw My Hands Up in the Air;letter-spacing:10px;}.cls-5{font-size:116.9px;fill:#ffda5d;font-family:PT Serif;font-weight:700;}.cls-6{letter-spacing:-11px;}</style></defs><title>imgs</title><path class="cls-1" d="M414.24,181.66l18-21a3.29,3.29,0,0,0,0-4.57l-19.12-17.95,0.51,3.92,12.1-15.81-5.08.65,15,14.56c3.35,3.26,7.11,9.18,12.24,9,8.23-.34,13.2-9.57,12.13-17-1.52-10.61-11.79-17.7-19.28-24.17l-7.95-6.86c-1.91-1.65-6.76-4.5-7.57-7s3.77-6,5.26-7.67l7.87-8.62h-4.57a523.14,523.14,0,0,1,46.86,46.75c1.48,1.68,4,.93,5.08-0.65l24.41-34.72-5.08.65c5.2,4.4,9.15,10.61,13.11,16.07,6.58,9.1,12.89,18.41,19.16,27.73,10.1,15,19.58,30.63,30.26,45.28l1.93-4.75c-66.21,13.55-132.33,38.67-187,79.1-11.92,8.83-22.43,18.92-33.59,28.61a307.82,307.82,0,0,0-31.23,31.64,434.79,434.79,0,0,0-54.78,81.3A453.39,453.39,0,0,0,221.7,506.64l5.4-1.43c-10.33-9-19.79-19.18-29.38-28.95C184.64,463,171.64,449.54,159,435.78c-4.12-4.5-8.55-9-12.06-14l-1.16,4.42,37.1-22a3.27,3.27,0,0,0,.65-5.08,508.34,508.34,0,0,1-42.23-49.9l-0.51,3.92,8.6-6.67c2.35-1.82,6.49-6.85,9.5-4.59,2.6,2,4.55,6,6.47,8.62l6.18,8.5c5.72,7.87,12,18.49,22.51,20.24,7.31,1.21,16.37-3.12,17.37-11.07,0.66-5.16-5.06-9.41-8.09-13.09L190.1,339l-0.65,5.08,17-11-3.92-.51,16.3,20.54a3.22,3.22,0,0,0,3.92.51l22.7-16.53a3.28,3.28,0,0,0,.65-5.08c-6.43-6.49-10.42-15.3-14.92-23.22q-9-15.91-17.45-32.16-16.83-32.49-31.1-66.22l-0.51,3.92c8.56-9.47,20.75-16.05,27.19-27.35,4.76-8.34,6.46-20.21.46-28.39-8.35-11.37-22.53-5.8-34.11-8.64-13.29-3.25-20.58-18-21.4-30.65a45.69,45.69,0,0,1,15.89-37.69l-4.57-4.57-2.42,2.23,4.57,4.57A44.51,44.51,0,0,1,212,73.13c7.94,2.47,15.53,7.52,19.83,14.78,4.83,8.16,2.41,16.68,2.39,25.56,0,14.7,11.23,23.21,25.41,21.33,16.62-2.2,25.47-17.34,37.82-26.78h-3.26q32.27,17.14,63.19,36.65,15.05,9.52,29.74,19.59c7.77,5.33,16.44,10.22,22.59,17.4,2.71,3.16,7.26-1.43,4.57-4.57-5.77-6.72-13.55-11.27-20.81-16.29Q378,150.15,362.18,140.1,330.54,120,297.4,102.45a3.2,3.2,0,0,0-3.26,0c-10.1,7.71-18.11,20.62-30.48,24.83-5.06,1.72-11.23,2.14-16.12-.34-6.79-3.43-7.19-10.9-6.71-17.66,0.47-6.52,1.29-13-1-19.31A34.2,34.2,0,0,0,229.74,75.7a47.68,47.68,0,0,0-31.72-11,50.57,50.57,0,0,0-34.86,14.58c-3,3,1.52,7.38,4.57,4.57l2.42-2.23c3.09-2.85-1.44-7.23-4.57-4.57-17.62,15-23.55,42.51-11.75,62.85,6.27,10.8,16.38,17.05,28.87,17.26,6.66,0.11,15-1.31,20.42,3.61,4.35,4,4.61,10.64,3.34,16-3.49,14.79-19.38,22.44-28.91,33a3.4,3.4,0,0,0-.51,3.92q14.66,34.55,32,67.88,8.44,16.23,17.51,32.12c4.53,7.94,8.54,16.37,15,22.9l0.65-5.08-22.7,16.53,3.92,0.51L207.09,328a3.23,3.23,0,0,0-3.92-.51l-17,11a3.29,3.29,0,0,0-.65,5.08L197,357.51l5.43,6.6c1.81,2.2,3.58,3.27,1.47,5.89-7.77,9.64-19-3.55-23.37-9.56-3.38-4.62-6.74-9.27-10.11-13.9-2.6-3.58-5.24-8.82-9.32-10.95-3.65-1.9-7-.65-10.11,1.63-5,3.66-9.82,7.61-14.72,11.41a3.22,3.22,0,0,0-.51,3.92A521.11,521.11,0,0,0,179,403.76l0.65-5.08-37.1,22a3.26,3.26,0,0,0-1.16,4.42c7.85,11.2,18.27,21,27.66,30.86q19.64,20.66,39.85,40.78c4.46,4.43,8.88,8.95,13.62,13.08,1.73,1.51,4.83,1.1,5.4-1.43,14.83-65.4,45.14-128.54,87.42-180.66,38.92-48,89-85.36,145.21-110.67a527,527,0,0,1,110.66-35.33c1.91-.39,3.12-3.11,1.93-4.75-10.91-15-20.58-30.88-30.9-46.23-6.23-9.27-12.51-18.51-19.07-27.54-4.09-5.63-8.2-12.08-13.56-16.61a3.3,3.3,0,0,0-5.08.65l-24.41,34.72,5.08-.65a523.14,523.14,0,0,0-46.86-46.75,3.28,3.28,0,0,0-4.57,0C429.69,79,425.41,83.34,421.51,88c-2.2,2.61-3.78,5.53-2.62,9,1.51,4.52,6.61,7.67,10,10.63,4.53,3.91,9.07,7.8,13.58,11.73,3.55,3.09,7.31,6.35,9.55,10.57s2.55,10.54-2.07,13.33c-2.52,1.52-3.18.12-5-1.65l-6.13-6-13.63-13.24c-1.64-1.59-3.82-1-5.08.65L408,138.83a3.23,3.23,0,0,0,.51,3.92l19.12,17.95v-4.57l-18,21C407,180.23,411.53,184.82,414.24,181.66Z"/><ellipse class="cls-2" cx="649.68" cy="605.2" rx="418.56" ry="417.65" transform="translate(-232.91 508.28) rotate(-36.7)"/><path class="cls-1" d="M1078.08,586.83c7.83,39.67,21,78.48,37,115.55,15.65,36.16,32.19,72.37,53.62,105.53a311.42,311.42,0,0,0,40.51,50.88l0.65-5.08a89.63,89.63,0,0,0-49.75,63.78l4-2.26c-37.21-8.08-76.18-7-113.74-2.17a501,501,0,0,0-121.19,31,352,352,0,0,0-57.88,29c-3.52,2.22-.42,7.52,3.26,5.58A260.69,260.69,0,0,0,898.27,964a469,469,0,0,0,55.86-44.23A449.31,449.31,0,0,0,1019,845.66,384.11,384.11,0,0,0,1070.44,741c13.61-43.84,18.61-90.11,15.66-135.89-0.41-6.38-1-12.74-1.67-19.1-0.44-4.09-6.91-4.14-6.46,0,5,46.42,2.41,93.49-9.57,138.69a373.11,373.11,0,0,1-48,107.31,434.44,434.44,0,0,1-63.77,76.62A463.22,463.22,0,0,1,900,955.07c-6.27,4.35-12.65,8.54-19.17,12.51-2.7,1.64-6.81,3.09-9.09,5.28a1.91,1.91,0,0,1-.42.22l3.26,5.58c33.06-20.88,70.13-35.16,107.74-45.41,38.8-10.57,79-17,119.29-17.36,20.39-.17,40.85,1.26,60.81,5.59,1.6,0.35,3.63-.47,4-2.26a83.62,83.62,0,0,1,46.78-59.92c1.92-.89,2-3.71.65-5.08-27.47-27.61-48-60.89-65.51-95.5-17.64-35-33.67-71.06-46.18-108.17a521.63,521.63,0,0,1-17.79-65.44C1083.51,581,1077.28,582.77,1078.08,586.83Z"/><path class="cls-1" d="M1143.93,762.85a263.42,263.42,0,0,1-1.35,43.29l4.09-3.12c-20.84-5-37.29,18.64-24.15,36.13l2.79-4.86c-7.49.06-13.59,5-16.56,11.68-3.83,8.67-1.6,18.35.63,27.13l4.75-3.65c-8.35-5.91-19.18,0-23.88,7.79-5.65,9.42-3.55,22.94-12.61,30.28-3.23,2.62,1.36,7.17,4.57,4.57,6.81-5.52,8.3-14.12,10.29-22.18,1.1-4.46,2.31-9,5.65-12.36s8.4-5.57,12.71-2.52c2.41,1.7,5.39-1.1,4.75-3.65-2.39-9.46-5.91-30.51,9.7-30.64,2.23,0,4.32-2.82,2.79-4.86-9.47-12.61,1-30.43,16.85-26.64,2.22,0.53,3.85-1,4.09-3.12a263.42,263.42,0,0,0,1.35-43.29c-0.21-4.14-6.68-4.16-6.46,0h0Z"/><path class="cls-1" d="M1204,859c-8.65,20.79-21.36,41.83-39.64,55.5-3.29,2.46-.07,8.07,3.26,5.58,19.78-14.79,33.24-36.85,42.61-59.36,1.6-3.84-4.65-5.51-6.23-1.72h0Z"/><path class="cls-1" d="M394.35,963q-36.82,51.91-72.35,104.72-8.53,12.6-17,25.25-3.76,5.61-7.5,11.24c-2.39,3.59-5.92,7.57-6.19,12.06-0.26,4.23,2.7,6.82,5.68,9.34,3.87,3.26,7.77,6.48,11.67,9.71q11.3,9.35,22.65,18.63,15.11,12.36,30.29,24.63a2.2,2.2,0,0,0,3.05,0q22.84-24.54,45.65-49.11,38.15-41.08,76.21-82.26c7.62-8.26,15.35-16.44,22.75-24.89,1-1.11.76-3.3-1-3.61-11.41-2.06-22.65-6.08-33.39-10.32a289.63,289.63,0,0,1-77.19-45.82c-2.13-1.75-5.2,1.29-3.05,3.05a296.93,296.93,0,0,0,76.85,46c11.43,4.63,23.45,9,35.64,11.22l-1-3.61c-17.56,20.07-36.08,39.35-54.2,58.91q-36.87,39.8-73.82,79.53l-16.58,17.83h3.05q-11.32-9.14-22.58-18.33c-14.4-11.74-29.38-23.1-43.15-35.57-1-.87-2.26-1.73-2.83-2.89-1.44-2.9.13-4.28,1.12-6.25a56.43,56.43,0,0,1,3.61-5.48q3.94-5.93,7.9-11.84,8.23-12.3,16.53-24.56,17.28-25.55,34.78-50.94,18.85-27.35,38-54.46C399.69,962.87,395.95,960.71,394.35,963Z"/><path class="cls-1" d="M377.79,1135.06c-6.06,6.88-12.33,13.58-18.52,20.34h3.05l-4.25-3.46-3.88-3.19c-0.63-.52-2.72-2.78-2.63-1.85-0.09-1,2.42-3.63,3.09-4.62q2.07-3.07,4.17-6.12,3.68-5.34,7.45-10.61l-3.39.44,14.92,12.12c2.14,1.74,5.21-1.3,3.05-3.05l-14.92-12.12a2.21,2.21,0,0,0-3.39.44q-4.57,6.41-9,12.91c-1.77,2.59-6.42,7.21-6.38,10.57,0,2.87,3.74,4.76,5.71,6.37q3.2,2.63,6.43,5.24a2.2,2.2,0,0,0,3.05,0c6.19-6.76,12.46-13.46,18.52-20.34C382.67,1136,379.63,1133,377.79,1135.06Z"/><path class="cls-1" d="M358.67,1117.66c-6.06,6.88-12.33,13.58-18.52,20.34h3.05l-4.25-3.46-3.88-3.19c-0.63-.52-2.72-2.78-2.63-1.85-0.09-1,2.42-3.63,3.09-4.62q2.07-3.07,4.17-6.12,3.68-5.34,7.45-10.61l-3.39.44,14.92,12.12c2.14,1.74,5.21-1.3,3.05-3.05l-14.92-12.12a2.21,2.21,0,0,0-3.39.44q-4.57,6.41-9,12.91c-1.77,2.59-6.42,7.21-6.38,10.57,0,2.87,3.74,4.76,5.71,6.37q3.2,2.63,6.43,5.24a2.2,2.2,0,0,0,3.05,0c6.19-6.76,12.46-13.46,18.52-20.34C363.55,1118.63,360.51,1115.57,358.67,1117.66Z"/><path class="cls-1" d="M340,1100.69c-6.06,6.88-12.33,13.58-18.52,20.34h3.05l-4.25-3.46-3.88-3.19c-0.63-.52-2.72-2.78-2.63-1.85-0.09-1,2.42-3.63,3.09-4.62q2.07-3.07,4.17-6.12,3.68-5.34,7.45-10.61l-3.39.44L340,1103.74c2.14,1.74,5.21-1.3,3.05-3.05l-14.92-12.12a2.21,2.21,0,0,0-3.39.44q-4.57,6.41-9,12.91c-1.77,2.59-6.42,7.21-6.38,10.57,0,2.87,3.74,4.76,5.71,6.37q3.2,2.63,6.43,5.24a2.2,2.2,0,0,0,3.05,0c6.19-6.76,12.46-13.46,18.52-20.34C344.92,1101.66,341.88,1098.6,340,1100.69Z"/><path class="cls-1" d="M401.72,1108.78c-6.06,6.88-12.33,13.58-18.52,20.34h3.05l-4.25-3.46-3.88-3.19c-0.63-.52-2.72-2.78-2.63-1.85-0.09-1,2.42-3.63,3.09-4.62q2.07-3.07,4.17-6.12,3.68-5.34,7.45-10.61l-3.39.44,14.92,12.12c2.14,1.74,5.21-1.3,3.05-3.05l-14.92-12.12a2.21,2.21,0,0,0-3.39.44q-4.57,6.41-9,12.91c-1.77,2.59-6.42,7.21-6.38,10.57,0,2.87,3.74,4.76,5.71,6.37q3.2,2.63,6.43,5.24a2.2,2.2,0,0,0,3.05,0c6.19-6.76,12.46-13.46,18.52-20.34C406.6,1109.75,403.56,1106.69,401.72,1108.78Z"/><path class="cls-1" d="M382.6,1091.38c-6.06,6.88-12.33,13.58-18.52,20.34h3.05l-4.25-3.46-3.88-3.19c-0.63-.52-2.72-2.78-2.63-1.85-0.09-1,2.42-3.63,3.09-4.62q2.07-3.07,4.17-6.12,3.68-5.34,7.45-10.61l-3.39.44,14.92,12.12c2.14,1.74,5.21-1.3,3.05-3.05l-14.92-12.12a2.21,2.21,0,0,0-3.39.44q-4.57,6.41-9,12.91c-1.77,2.59-6.42,7.21-6.38,10.57,0,2.87,3.74,4.76,5.71,6.37q3.2,2.63,6.43,5.24a2.2,2.2,0,0,0,3.05,0c6.19-6.76,12.46-13.46,18.52-20.34C387.48,1092.35,384.44,1089.29,382.6,1091.38Z"/><path class="cls-1" d="M364,1074.41c-6.06,6.88-12.33,13.58-18.52,20.34h3.05l-4.25-3.46-3.88-3.19c-0.63-.52-2.72-2.78-2.63-1.85-0.09-1,2.42-3.63,3.09-4.62q2.07-3.07,4.17-6.12,3.68-5.34,7.45-10.61l-3.39.44L364,1077.46c2.14,1.74,5.21-1.3,3.05-3.05l-14.92-12.12a2.21,2.21,0,0,0-3.39.44q-4.57,6.41-9,12.91c-1.77,2.59-6.42,7.21-6.38,10.57,0,2.87,3.74,4.76,5.71,6.37q3.2,2.63,6.43,5.24a2.2,2.2,0,0,0,3.05,0c6.19-6.76,12.46-13.46,18.52-20.34C368.85,1075.38,365.81,1072.32,364,1074.41Z"/><path class="cls-1" d="M423.5,1081.32c-6.06,6.88-12.33,13.58-18.52,20.34H408l-4.25-3.46-3.88-3.19c-0.63-.52-2.72-2.78-2.63-1.85-0.09-1,2.42-3.63,3.09-4.62q2.07-3.07,4.17-6.12,3.68-5.34,7.45-10.61l-3.39.44,14.92,12.12c2.14,1.74,5.21-1.3,3.05-3.05l-14.92-12.12a2.21,2.21,0,0,0-3.39.44q-4.57,6.41-9,12.91c-1.77,2.59-6.42,7.21-6.38,10.57,0,2.87,3.74,4.76,5.71,6.37q3.2,2.63,6.43,5.24a2.2,2.2,0,0,0,3.05,0c6.19-6.76,12.46-13.46,18.52-20.34C428.38,1082.3,425.34,1079.23,423.5,1081.32Z"/><path class="cls-1" d="M404.38,1063.92c-6.06,6.88-12.33,13.58-18.52,20.34h3.05l-4.25-3.46-3.88-3.19c-0.63-.52-2.72-2.78-2.63-1.85-0.09-1,2.42-3.63,3.09-4.62q2.07-3.07,4.17-6.12,3.68-5.34,7.45-10.61l-3.39.44L404.38,1067c2.14,1.74,5.21-1.3,3.05-3.05l-14.92-12.12a2.21,2.21,0,0,0-3.39.44q-4.57,6.41-9,12.91c-1.77,2.59-6.42,7.21-6.38,10.57,0,2.87,3.74,4.76,5.71,6.37q3.2,2.63,6.43,5.24a2.2,2.2,0,0,0,3.05,0c6.19-6.76,12.46-13.46,18.52-20.34C409.26,1064.89,406.22,1061.83,404.38,1063.92Z"/><path class="cls-1" d="M385.75,1046.95c-6.06,6.88-12.33,13.58-18.52,20.34h3.05l-4.25-3.46-3.88-3.19c-0.63-.52-2.72-2.78-2.63-1.85-0.09-1,2.42-3.63,3.09-4.62q2.07-3.07,4.17-6.12,3.68-5.34,7.45-10.61l-3.39.44L385.75,1050c2.14,1.74,5.21-1.3,3.05-3.05l-14.92-12.12a2.21,2.21,0,0,0-3.39.44q-4.57,6.41-9,12.91c-1.77,2.59-6.42,7.21-6.38,10.57,0,2.87,3.74,4.76,5.71,6.37q3.2,2.63,6.43,5.24a2.2,2.2,0,0,0,3.05,0c6.19-6.76,12.46-13.46,18.52-20.34C390.63,1047.92,387.59,1044.86,385.75,1046.95Z"/><path class="cls-1" d="M445.56,1054.21c-6.06,6.88-12.33,13.58-18.52,20.34h3.05l-4.25-3.46-3.88-3.19c-0.63-.52-2.72-2.78-2.63-1.85-0.09-1,2.42-3.63,3.09-4.62q2.07-3.07,4.17-6.12,3.68-5.34,7.45-10.61l-3.39.44,14.92,12.12c2.14,1.74,5.21-1.3,3.05-3.05l-14.92-12.12a2.21,2.21,0,0,0-3.39.44q-4.57,6.41-9,12.91c-1.77,2.59-6.42,7.21-6.38,10.57,0,2.87,3.74,4.76,5.71,6.37q3.2,2.63,6.43,5.24a2.2,2.2,0,0,0,3.05,0c6.19-6.76,12.46-13.46,18.52-20.34C450.44,1055.19,447.4,1052.12,445.56,1054.21Z"/><path class="cls-1" d="M426.44,1036.81c-6.06,6.88-12.33,13.58-18.52,20.34H411l-4.25-3.46-3.88-3.19c-0.63-.52-2.72-2.78-2.63-1.85-0.09-1,2.42-3.63,3.09-4.62q2.07-3.07,4.17-6.12,3.68-5.34,7.45-10.61l-3.39.44,14.92,12.12c2.14,1.74,5.21-1.3,3.05-3.05l-14.92-12.12a2.21,2.21,0,0,0-3.39.44q-4.57,6.41-9,12.91c-1.77,2.59-6.42,7.21-6.38,10.57,0,2.87,3.74,4.76,5.71,6.37q3.2,2.63,6.43,5.24a2.2,2.2,0,0,0,3.05,0c6.19-6.76,12.46-13.46,18.52-20.34C431.33,1037.78,428.28,1034.72,426.44,1036.81Z"/><path class="cls-1" d="M470.51,1026.82c-6.06,6.88-12.33,13.58-18.52,20.34H455l-4.25-3.46-3.88-3.19c-0.63-.52-2.72-2.78-2.63-1.85-0.09-1,2.42-3.63,3.09-4.62q2.07-3.07,4.17-6.12,3.68-5.34,7.45-10.61l-3.39.44,14.92,12.12c2.14,1.74,5.21-1.3,3.05-3.05l-14.92-12.12a2.21,2.21,0,0,0-3.39.44q-4.57,6.41-9,12.91c-1.77,2.59-6.42,7.21-6.38,10.57,0,2.87,3.74,4.76,5.71,6.37q3.2,2.63,6.43,5.24a2.2,2.2,0,0,0,3.05,0c6.19-6.76,12.46-13.46,18.52-20.34C475.39,1027.79,472.35,1024.73,470.51,1026.82Z"/><path class="cls-1" d="M407.81,1019.84c-6.06,6.88-12.33,13.58-18.52,20.34h3.05l-4.25-3.46-3.88-3.19c-0.63-.52-2.72-2.78-2.63-1.85-0.09-1,2.42-3.63,3.09-4.62q2.07-3.07,4.17-6.12,3.68-5.34,7.45-10.61l-3.39.44,14.92,12.12c2.14,1.74,5.21-1.3,3.05-3.05l-14.92-12.12a2.21,2.21,0,0,0-3.39.44q-4.57,6.41-9,12.91c-1.77,2.59-6.42,7.21-6.38,10.57,0,2.87,3.74,4.76,5.71,6.37q3.2,2.63,6.43,5.24a2.2,2.2,0,0,0,3.05,0c6.19-6.76,12.46-13.46,18.52-20.34C412.69,1020.81,409.65,1017.75,407.81,1019.84Z"/><path class="cls-1" d="M311.85,1136.11l-18.41,32.61c-1.36,2.42-2.56,5.65-4.36,7.72-3.66,4.22-6.45.47-9.59-2l-15.73-12.26-58.22-45.38-14.16-11c-3.25-2.53-7.46-4.38-5.22-9.67,1.07-2.52,4.26-5,6.06-7.18q8.85-10.47,17.72-20.93,11.08-13.07,22.2-26.11,17.87-21,35.64-42.06c1.78-2.11-1.26-5.18-3.05-3.05q-30.82,36.49-61.81,72.85l-9.37,11.07c-3.76,4.44-8.64,9-11.68,13.91-2.05,3.34-1.84,6.37.71,9.37,4.43,5.19,11.38,9.25,16.75,13.44l66.08,51.51c5.59,4.36,11.12,9.92,17.28,13.41,4.15,2.35,7.2,1.06,9.62-2.86,8.25-13.39,15.52-27.5,23.25-41.2,1.37-2.42-2.36-4.6-3.73-2.18h0Z"/><path class="cls-1" d="M279.44,1139.31c-1.23,2.17-2.37,5.24-4.1,7l2.1-.55c-3.52-1.26-7.13-5.4-10.09-7.7-0.64-.5-5.93-4-5.85-4.55,0,0.35,2.84-2.44,3.17-2.83q5.15-6.07,10.3-12.14h-3.05L286.14,1130l-0.34-2.61-6.37,12c-1.3,2.45,2.42,4.63,3.73,2.18l6.37-12a2.19,2.19,0,0,0-.34-2.61L275,1115.53a2.19,2.19,0,0,0-3.05,0q-3.71,4.39-7.43,8.76c-2,2.37-6.48,5.87-7.18,8.83-0.83,3.55,4,5.69,6.25,7.45,3.85,3,8.11,7.72,12.73,9.38a2.13,2.13,0,0,0,2.1-.55c2.05-2.13,3.33-5.36,4.78-7.91S280.81,1136.9,279.44,1139.31Z"/><path class="cls-1" d="M256.2,1121.65c-1.23,2.17-2.37,5.24-4.1,7l2.1-.55c-3.52-1.26-7.13-5.4-10.09-7.7-0.64-.5-5.93-4-5.85-4.55,0,0.35,2.84-2.44,3.17-2.83q5.15-6.07,10.3-12.14h-3.05l14.23,11.37-0.34-2.61-6.37,12c-1.3,2.45,2.42,4.63,3.73,2.18l6.37-12a2.19,2.19,0,0,0-.34-2.61l-14.23-11.37a2.19,2.19,0,0,0-3.05,0q-3.71,4.39-7.43,8.76c-2,2.37-6.48,5.87-7.18,8.83-0.83,3.55,4,5.69,6.25,7.45,3.85,3,8.11,7.72,12.73,9.38a2.13,2.13,0,0,0,2.1-.55c2.05-2.13,3.33-5.36,4.78-7.91S257.57,1119.23,256.2,1121.65Z"/><path class="cls-1" d="M233.34,1102.59c-1.23,2.17-2.37,5.24-4.1,7l2.1-.55c-3.52-1.26-7.13-5.4-10.09-7.7-0.64-.5-5.93-4-5.85-4.55,0,0.35,2.84-2.44,3.17-2.83q5.15-6.07,10.3-12.14h-3.05L240,1093.23l-0.34-2.61-6.37,12c-1.3,2.45,2.42,4.63,3.73,2.18l6.37-12a2.19,2.19,0,0,0-.34-2.61l-14.23-11.37a2.19,2.19,0,0,0-3.05,0q-3.71,4.39-7.43,8.76c-2,2.37-6.48,5.87-7.18,8.83-0.83,3.55,4,5.69,6.25,7.45,3.85,3,8.11,7.72,12.73,9.38a2.13,2.13,0,0,0,2.1-.55c2.05-2.13,3.33-5.36,4.78-7.91S234.72,1100.17,233.34,1102.59Z"/><path class="cls-1" d="M274.69,1096.53c-1.23,2.17-2.37,5.24-4.1,7l2.1-.55c-3.52-1.26-7.13-5.4-10.09-7.7-0.64-.5-5.93-4-5.85-4.55,0,0.35,2.84-2.44,3.17-2.83q5.15-6.07,10.3-12.14h-3.05l14.23,11.37-0.34-2.61-6.37,12c-1.3,2.45,2.42,4.63,3.73,2.18l6.37-12a2.19,2.19,0,0,0-.34-2.61l-14.23-11.37a2.19,2.19,0,0,0-3.05,0q-3.71,4.39-7.43,8.76c-2,2.37-6.48,5.87-7.18,8.83-0.83,3.55,4,5.69,6.25,7.45,3.85,3,8.11,7.72,12.73,9.38a2.13,2.13,0,0,0,2.1-.55c2.05-2.13,3.33-5.36,4.78-7.91S276.06,1094.11,274.69,1096.53Z"/><path class="cls-1" d="M251.84,1077.47c-1.23,2.17-2.37,5.24-4.1,7l2.1-.55c-3.52-1.26-7.13-5.4-10.09-7.7-0.64-.5-5.93-4-5.85-4.55,0,0.35,2.84-2.44,3.17-2.83q5.15-6.07,10.3-12.14h-3.05l14.23,11.37-0.34-2.61-6.37,12c-1.3,2.45,2.42,4.63,3.73,2.18l6.37-12a2.19,2.19,0,0,0-.34-2.61l-14.23-11.37a2.19,2.19,0,0,0-3.05,0q-3.71,4.39-7.43,8.76c-2,2.37-6.48,5.87-7.18,8.83-0.83,3.55,4,5.69,6.25,7.45,3.85,3,8.11,7.72,12.73,9.38a2.13,2.13,0,0,0,2.1-.55c2.05-2.13,3.33-5.36,4.78-7.91S253.21,1075.06,251.84,1077.47Z"/><path class="cls-1" d="M292.75,1071.9c-1.23,2.17-2.37,5.24-4.1,7l2.1-.55c-3.52-1.26-7.13-5.4-10.09-7.7-0.64-.5-5.93-4-5.85-4.55,0,0.35,2.84-2.44,3.17-2.83q5.15-6.07,10.3-12.14h-3.05l14.23,11.37-0.34-2.61-6.37,12c-1.3,2.45,2.42,4.63,3.73,2.18l6.37-12a2.19,2.19,0,0,0-.34-2.61l-14.23-11.37a2.19,2.19,0,0,0-3.05,0q-3.71,4.39-7.43,8.76c-2,2.37-6.48,5.87-7.18,8.83-0.83,3.55,4,5.69,6.25,7.45,3.85,3,8.11,7.72,12.73,9.38a2.13,2.13,0,0,0,2.1-.55c2.05-2.13,3.33-5.36,4.78-7.91S294.13,1069.48,292.75,1071.9Z"/><path class="cls-1" d="M310.77,1046.35c-1.23,2.17-2.37,5.24-4.1,7l2.1-.55c-3.52-1.26-7.13-5.4-10.09-7.7-0.64-.5-5.93-4-5.85-4.55,0,0.35,2.84-2.44,3.17-2.83q5.15-6.07,10.3-12.14h-3.05L317.48,1037l-0.34-2.61-6.37,12c-1.3,2.45,2.42,4.63,3.73,2.18l6.37-12a2.19,2.19,0,0,0-.34-2.61l-14.23-11.37a2.19,2.19,0,0,0-3.05,0q-3.71,4.39-7.43,8.76c-2,2.37-6.48,5.87-7.18,8.83-0.83,3.55,4,5.69,6.25,7.45,3.85,3,8.11,7.72,12.73,9.38a2.13,2.13,0,0,0,2.1-.55c2.05-2.13,3.33-5.36,4.78-7.91S312.14,1043.93,310.77,1046.35Z"/><path class="cls-1" d="M269.9,1052.84c-1.23,2.17-2.37,5.24-4.1,7l2.1-.55c-3.52-1.26-7.13-5.4-10.09-7.7-0.64-.5-5.93-4-5.85-4.55,0,0.35,2.84-2.44,3.17-2.83q5.15-6.07,10.3-12.14h-3.05l14.23,11.37-0.34-2.61-6.37,12c-1.3,2.45,2.42,4.63,3.73,2.18l6.37-12a2.19,2.19,0,0,0-.34-2.61l-14.23-11.37a2.19,2.19,0,0,0-3.05,0q-3.71,4.39-7.43,8.76c-2,2.37-6.48,5.87-7.18,8.83-0.83,3.55,4,5.69,6.25,7.45,3.85,3,8.11,7.72,12.73,9.38a2.13,2.13,0,0,0,2.1-.55c2.05-2.13,3.33-5.36,4.78-7.91S271.27,1050.42,269.9,1052.84Z"/><path class="cls-1" d="M326.62,921.39a178.56,178.56,0,0,1-26.93-24c-2.82-3.07-7.39,1.51-4.57,4.57a186.66,186.66,0,0,0,28.24,25c3.38,2.44,6.61-3.17,3.26-5.58h0Z"/><path class="cls-1" d="M320.91,922.34c-2.26,4.37-4.85,9.06-9.16,11.72-6.14,3.8-12.12,1.58-17-3-4.2-3.9-6.58-8.66-4.44-14.3,1.92-5,6.39-8.52,10.45-11.82,2.16-1.75-.91-4.79-3.05-3.05-5.5,4.47-11.31,9.55-12.45,16.94-1,6.66,2.71,12.16,7.6,16.31,5.09,4.33,11.15,6.72,17.69,4.3,6.82-2.52,10.92-8.78,14.12-15,1.27-2.46-2.45-4.65-3.73-2.18h0Z"/><path class="cls-1" d="M287.54,886.57a178.56,178.56,0,0,1-26.93-24c-2.82-3.07-7.39,1.51-4.57,4.57a186.66,186.66,0,0,0,28.24,25c3.38,2.44,6.61-3.17,3.26-5.58h0Z"/><path class="cls-1" d="M281.83,887.51c-2.26,4.37-4.85,9.06-9.16,11.72-6.14,3.8-12.12,1.58-17-3-4.2-3.9-6.58-8.66-4.44-14.3,1.92-5,6.39-8.52,10.45-11.82,2.16-1.75-.91-4.79-3.05-3.05-5.5,4.47-11.31,9.55-12.45,16.94-1,6.66,2.71,12.16,7.6,16.31,5.09,4.33,11.15,6.72,17.69,4.3,6.82-2.52,10.92-8.78,14.12-15,1.27-2.46-2.45-4.65-3.73-2.18h0Z"/><path class="cls-1" d="M249.9,853a178.56,178.56,0,0,1-26.93-24c-2.82-3.07-7.39,1.51-4.57,4.57a186.66,186.66,0,0,0,28.24,25c3.38,2.44,6.61-3.17,3.26-5.58h0Z"/><path class="cls-1" d="M243.57,853.62c-2.2,4.26-4.71,8.86-8.9,11.47-5.85,3.64-11.48,1.47-16.16-2.86-10-9.26-2.35-18.31,6-25.1,2.88-2.33-1.22-6.38-4.07-4.07-5.67,4.6-11.54,9.84-12.66,17.45-1,6.85,2.77,12.53,7.81,16.82,5.29,4.5,11.6,7,18.39,4.49,7-2.56,11.27-8.94,14.55-15.29,1.7-3.28-3.27-6.2-5-2.9h0Z"/><path class="cls-1" d="M307.36,969l-0.5,1.64c-0.59,2,2.2,3.8,3.61,2.1q12-14.51,24.07-29c3.78-4.55,7.58-9.08,11.33-13.65,1.86-2.27,4-5.28,1.32-7.76-2-1.87-5.11,1.18-3.05,3.05,0.35,0.32-33.62,40.53-36.72,44.28l3.61,2.1,0.5-1.64c0.8-2.66-3.36-3.8-4.16-1.15h0Z"/><path class="cls-1" d="M188.45,861.9c10-13.12,22.18-24.81,33.72-36.55s23.1-23.15,34.73-34.65c2-2-1.07-5-3.05-3.05-11.93,11.81-23.88,23.61-35.65,35.59-11.5,11.72-23.5,23.4-33.47,36.48-1.68,2.21,2.06,4.36,3.73,2.18h0Z"/><path class="cls-1" d="M308.72,971.09L190.61,860.5c-2-1.9-5.08,1.15-3.05,3.05L305.67,974.14c2,1.9,5.08-1.15,3.05-3.05h0Z"/><path class="cls-1" d="M350.08,920.67C310.4,883,281.31,836.76,258.15,787.54c-1.77-3.76-7.34-.48-5.58,3.26,23.38,49.69,52.88,96.45,92.94,134.44,3,2.86,7.6-1.7,4.57-4.57h0Z"/><path class="cls-1" d="M292.9,1016c1.5-7.29,3.18-14.53,5.07-21.73,1.75-6.64,3-15.12,7.26-20.65,1.68-2.17-1.35-5.24-3.05-3.05-4.19,5.4-5.59,12.33-7.37,18.81-2.31,8.42-4.32,16.92-6.08,25.47-0.56,2.71,3.6,3.87,4.16,1.15h0Z"/><path class="cls-1" d="M305.05,969.15c-40.35-36.46-78.84-74.95-119.51-111.06-2.07-1.84-5.13,1.2-3.05,3.05,40.68,36.11,79.16,74.6,119.51,111.06,2.06,1.86,5.12-1.18,3.05-3.05h0Z"/><path class="cls-1" d="M291.57,1016.29q-35.49-34.09-71.19-68Q202.94,931.71,185.54,915c-4.09-3.92-7.9-6.21-7.3-12.71,0.42-4.56,1.72-9.21,2.56-13.72l5.3-28.42c0.51-2.71-3.65-3.88-4.16-1.15l-5.49,29.4c-0.95,5.09-2.25,10.24-2.83,15.39a9.29,9.29,0,0,0,1.46,6.82c2.35,3.44,6.19,6.27,9.19,9.15l8.46,8.1q9.73,9.3,19.47,18.59,38.18,36.41,76.33,72.86c2,1.92,5.06-1.12,3.05-3.05h0Z"/><path class="cls-1" d="M291.67,1019.81l36.05-13.35a2.2,2.2,0,0,0,1-3.61q-7.11-9-13.54-18.59-3-4.51-5.89-9.14c-1.21-2-2.16-4.44-4.1-5.76a2.18,2.18,0,0,0-3.17,1.29l-0.1.32a2.18,2.18,0,0,0,2.08,2.73l0.61,0c2.78,0.07,2.78-4.24,0-4.32l-0.61,0,2.08,2.73,0.1-.32L303,973.09c0.82,0.56,2.05,3.41,2.55,4.21q1.43,2.31,2.91,4.6,2.7,4.19,5.54,8.28c3.72,5.37,7.63,10.59,11.66,15.72l1-3.61-36.05,13.35c-2.58,1-1.47,5.13,1.15,4.16h0Z"/><path class="cls-1" d="M300.79,971.83c-7.43-1.46-20.64-4.88-17.3-15.38a2.18,2.18,0,0,0-2.08-2.73,18.65,18.65,0,0,1-18.29-18.51,2.17,2.17,0,0,0-2.16-2.16,16.87,16.87,0,0,1-18.09-16.63,2.17,2.17,0,0,0-2.16-2.16,16.63,16.63,0,0,1-18.44-18.38,2.17,2.17,0,0,0-2.16-2.16A14.16,14.16,0,0,1,205.3,880a2.19,2.19,0,0,0-1.58-2.08,29.7,29.7,0,0,1-18.15-10.87c-1.74-2.16-4.78.91-3.05,3.05a33.29,33.29,0,0,0,20.05,12L201,880a18.54,18.54,0,0,0,19.13,18L218,895.89c-1.58,12.64,10.11,24.31,22.76,22.69l-2.16-2.16c0,11.9,10.47,21.86,22.41,20.95l-2.16-2.16A23,23,0,0,0,281.41,958l-2.08-2.73c-4.13,13,10.38,18.73,20.31,20.68,2.71,0.53,3.87-3.63,1.15-4.16h0Z"/><path class="cls-1" d="M298.5,984.5c-7.32,1.1-13.37-6.65-11.29-13.49,0.74-2.44-2.62-3.61-3.94-1.66-2,2.88-9.63-4.53-10.63-5.6-3.16-3.37-5.26-7.31-4.2-12a2.19,2.19,0,0,0-2.08-2.73,18.46,18.46,0,0,1-18-18,2.19,2.19,0,0,0-2.16-2.16A20.31,20.31,0,0,1,226.23,913a2.21,2.21,0,0,0-2.08-1.58c-9.47-.79-16.11-9.79-14.89-19,0.18-1.39-1.53-2.46-2.73-2.08-8.46,2.66-16.5-3.85-14.85-12.81a2.19,2.19,0,0,0-3.17-2.44,7.4,7.4,0,0,1-5.34,1c-2.72-.38-3.89,3.77-1.15,4.16a13.52,13.52,0,0,0,8.67-1.39l-3.17-2.44c-2.2,12,8.31,21.85,20.16,18.12l-2.73-2.08c-1.55,11.73,7.6,22.36,19.21,23.33l-2.08-1.58a24.64,24.64,0,0,0,24.06,19.06L244,931a22.83,22.83,0,0,0,22.36,22.29l-2.08-2.73c-1.72,7.66,2.47,14.18,8.24,18.92,3.87,3.18,10.72,7.57,14.49,2L283,969.86c-3.13,10.31,6.19,20.36,16.6,18.8,2.74-.41,1.57-4.57-1.15-4.16h0Z"/><path class="cls-1" d="M291.51,998.93c2.78,0,2.78-4.32,0-4.32s-2.78,4.32,0,4.32h0Z"/><path class="cls-1" d="M292.49,995.69a6.18,6.18,0,0,1-2.86-10.35c1.65-1.56-.1-4-2.1-3.61-9.6,2-18.84-6.25-18.39-15.9a2.17,2.17,0,0,0-2.16-2.16,15.39,15.39,0,0,1-16.26-16.53,2.16,2.16,0,0,0-1.58-2.08,17.88,17.88,0,0,1-15.4-17.15,2.19,2.19,0,0,0-1.58-2.08,26.9,26.9,0,0,1-19.91-15.49,2.09,2.09,0,0,0-1.86-1.07c-10.76,1-13.69-10.91-15.35-19.09a2.17,2.17,0,0,0-2.08-1.58,25.75,25.75,0,0,1-11.46-2.1c-2.52-1.1-4.72,2.62-2.18,3.73a30.7,30.7,0,0,0,13.64,2.69l-2.08-1.58c2.06,10.14,6.74,23.41,19.51,22.26l-1.86-1.07A30.88,30.88,0,0,0,231,930l-1.58-2.08A22.18,22.18,0,0,0,248,949.22l-1.58-2.08c-0.91,11.47,9.1,21.58,20.57,20.84l-2.16-2.16c-0.59,12.62,11.63,22.63,23.85,20.06l-2.1-3.61c-5.75,5.43-3,15.81,4.76,17.56,2.7,0.61,3.86-3.55,1.15-4.16h0Z"/><path class="cls-1" d="M286,993.7a13.93,13.93,0,0,1-13.47-15,2.19,2.19,0,0,0-2.16-2.16,19.81,19.81,0,0,1-18-15.81,2.21,2.21,0,0,0-2.08-1.58c-10-1-17.32-10.29-16.57-20.18a2.21,2.21,0,0,0-2.16-2.16,12.85,12.85,0,0,1-10.94-13.88c0.13-1.78-1.89-2.5-3.25-1.86a11.78,11.78,0,0,1-11.63-1.2c-4.22-2.86-3.83-6.43-5.42-10.64-1.08-2.87-3.26-3.49-6.05-4.15a24.6,24.6,0,0,1-12.95-7.79c-1.86-2.07-4.91,1-3.05,3.05a28.61,28.61,0,0,0,12.57,8.3c1.64,0.52,4.52.7,5.53,2.31,0.45,0.73.29,2.27,0.49,3.15a14.51,14.51,0,0,0,2.41,5.41,16.51,16.51,0,0,0,20.27,5.28l-3.25-1.86a17.18,17.18,0,0,0,15.26,18.19l-2.16-2.16c-0.95,12.43,8.64,23.28,20.88,24.5l-2.08-1.58a24.19,24.19,0,0,0,22.17,19l-2.16-2.16A18.27,18.27,0,0,0,286,998c2.78,0.07,2.78-4.25,0-4.32h0Z"/><path class="cls-1" d="M282.72,1005a12.3,12.3,0,0,1-7.56-14,2.21,2.21,0,0,0-1.51-2.65,28.49,28.49,0,0,1-10.79-6.23c-2.54-2.37-3.75-5.63-6-8.06-1.41-1.55-3.8-1.75-5.72-2.47-3.05-1.15-6.36-2.62-8.74-4.93-4.53-4.4-2.61-11.32-8-15-5.72-3.94-15-8.37-11.68-17a2.17,2.17,0,0,0-2.08-2.73A20,20,0,0,1,203,921.32a2.12,2.12,0,0,0-1.86-1.07,15.76,15.76,0,0,1-10.36-2.54c-2.35-1.5-4.51,2.23-2.18,3.73a19.61,19.61,0,0,0,12.54,3.13l-1.86-1.07a24.34,24.34,0,0,0,21.32,12.64l-2.08-2.73c-2.51,6.6,1.19,12.93,6.27,17.16a30.35,30.35,0,0,0,4.06,2.85c3.07,1.8,4.72,2.89,5.68,6.58,0.88,3.38,1.49,6.12,3.93,8.8a24.44,24.44,0,0,0,7.87,5.43c3.1,1.44,6.31,1.76,8.26,4.65a33.77,33.77,0,0,0,17.87,13.61L271,989.83a16.73,16.73,0,0,0,10.58,19.36c2.59,1,3.72-3.17,1.15-4.16h0Z"/><path class="cls-1" d="M330.56,1006.75c16.22-18.56,35.42-34.57,50.38-54.23a2.16,2.16,0,0,0-.34-2.61c-10.11-9.69-21.07-18.49-31.33-28-2-1.89-5.09,1.16-3.05,3.05,10.27,9.53,21.22,18.33,31.33,28l-0.34-2.61c-14.72,19.35-33.74,35.08-49.71,53.35-1.82,2.08,1.22,5.15,3.05,3.05h0Z"/><path class="cls-1" d="M238.41,1016.8c5.72-8.84,14.69-15.22,20.41-24.07,1.51-2.34-2.22-4.5-3.73-2.18-5.72,8.84-14.69,15.22-20.41,24.07-1.51,2.34,2.22,4.5,3.73,2.18h0Z"/><path class="cls-1" d="M238.07,1014.18q-29.23-29.44-61-56.09v3.05l25.73-25.21c2-1.95-1.07-5-3.05-3.05L174,958.1a2.17,2.17,0,0,0,0,3.05q31.82,26.62,61,56.09c2,2,5-1.08,3.05-3.05h0Z"/><path class="cls-1" d="M231.65,1015.12l-3.5,4.86-1.64,2.27-0.93,1.3q-1.32,1.16,1.05,1.47l-0.22,1.66,0.18-.38c1.17-2.5-2.55-4.69-3.73-2.18-1.54,3.3,2.4,5.87,5,3.44a29.3,29.3,0,0,0,3.31-4.43l4.21-5.83c1.63-2.26-2.12-4.41-3.73-2.18h0Z"/><path class="cls-1" d="M175.12,960.08l-11.34,14.55c-1.69,2.17,1.35,5.24,3.05,3.05l11.34-14.55c1.69-2.17-1.35-5.24-3.05-3.05h0Z"/><path class="cls-1" d="M224.77,1023.26L167,973c-2.09-1.82-5.15,1.22-3.05,3.05l57.77,50.28c2.09,1.82,5.15-1.22,3.05-3.05h0Z"/><path class="cls-1" d="M163.08,972.44c-5,10.63-6.29,22.13-5.34,33.75,0.75,9.23,2.77,19.56,10.53,25.56,7.47,5.78,17.65,5.19,26.55,4.84,11.33-.45,22.22-2.74,31.91-8.86,2.34-1.48.18-5.21-2.18-3.73-8.63,5.44-18.25,7.75-28.36,8.22-7.71.36-16.83,1.32-23.74-2.84-8.36-5-9.95-16-10.52-24.89-0.66-10.27.48-20.49,4.87-29.88,1.17-2.5-2.55-4.69-3.73-2.18h0Z"/><path class="cls-1" d="M176.24,1033.26c-1.28,1.17-2.52,2.43-3.87,3.53-2,1.6-2.55.29-4.37-1.35a92.05,92.05,0,0,1-7.76-8v3.05l5.09-5.84c1.82-2.09-1.22-5.15-3.05-3.05l-5.09,5.84a2.22,2.22,0,0,0,0,3.05c3.21,3.68,7.32,9,11.81,11.2,4.14,2,7.59-3,10.29-5.43,2.06-1.88-1-4.92-3.05-3.05h0Z"/><path class="cls-1" d="M157,1029.9L141,1048.6c-1.79,2.1,1.25,5.17,3.05,3.05L160,1033c1.79-2.1-1.25-5.17-3.05-3.05h0Z"/><path class="cls-1" d="M166.64,1041.11L156,1052.93c-2.17,2.42-3.41,3.41-5.79.88l-5.23-5.56c-1.91-2-5,1-3.05,3.05,2.72,2.89,7.34,10.66,12.26,9,2.73-.93,4.92-4.37,6.73-6.39l8.75-9.74c1.85-2.06-1.19-5.12-3.05-3.05h0Z"/><path class="cls-1" d="M146.86,1056.92a24,24,0,0,1-5.77,8.82h3.05q-4.5-3.62-8.66-7.6l-0.44,3.39q5.49-3.15,10.64-6.83c2.24-1.6.09-5.34-2.18-3.73q-5.15,3.68-10.64,6.83a2.18,2.18,0,0,0-.44,3.39q4.17,4,8.66,7.6a2.21,2.21,0,0,0,3.05,0,29,29,0,0,0,6.88-10.73c1-2.61-3.2-3.73-4.16-1.15h0Z"/><path class="cls-1" d="M138.1,1063.29a147.33,147.33,0,0,1-15,16.07c-2,1.89,1,4.93,3.05,3.05a147.33,147.33,0,0,0,15-16.07c1.72-2.15-1.31-5.22-3.05-3.05h0Z"/><path class="cls-1" d="M138.29,1075.49a32.27,32.27,0,0,1-11.06-10.32c-1.52-2.31-5.26-.15-3.73,2.18a37,37,0,0,0,12.6,11.87c2.42,1.38,4.59-2.35,2.18-3.73h0Z"/><path class="cls-1" d="M213.15,946.67L205,955c-0.55.56-9,10.26-9.79,5.46-0.07-.42,3.22-3.83,3.53-4.2l3.53-4.2,8.23-9.8h-3.05a33,33,0,0,0,5.53,5.52c2.16,1.7,5.23-1.33,3.05-3.05a33,33,0,0,1-5.53-5.52,2.16,2.16,0,0,0-3.05,0c-4.7,5.6-9.44,11.17-14.11,16.79-2.3,2.77-4.61,6-1.28,9.11,3,2.73,6.87,1.45,9.65-.76,5.27-4.19,9.8-9.82,14.51-14.62,1.95-2-1.1-5-3.05-3.05h0Z"/><path class="cls-1" d="M228.11,962.22l-8.16,8.31c-0.55.56-9,10.26-9.79,5.46-0.07-.42,3.22-3.83,3.53-4.2l3.53-4.2,8.23-9.8h-3.05a33,33,0,0,0,5.53,5.52c2.16,1.7,5.23-1.33,3.05-3.05a33,33,0,0,1-5.53-5.52,2.16,2.16,0,0,0-3.05,0c-4.7,5.6-9.44,11.17-14.11,16.79-2.3,2.77-4.61,6-1.28,9.11,3,2.73,6.87,1.45,9.65-.76,5.27-4.19,9.8-9.82,14.51-14.62,1.95-2-1.1-5-3.05-3.05h0Z"/><path class="cls-1" d="M244.5,976.89l-8.16,8.31c-0.55.56-9,10.26-9.79,5.46-0.07-.42,3.22-3.83,3.53-4.2l3.53-4.2,8.23-9.8h-3.05a33,33,0,0,0,5.53,5.52c2.16,1.7,5.23-1.33,3.05-3.05a33,33,0,0,1-5.53-5.52,2.16,2.16,0,0,0-3.05,0c-4.7,5.6-9.44,11.17-14.11,16.79-2.3,2.77-4.61,6-1.28,9.11,3,2.73,6.87,1.45,9.65-.76,5.27-4.19,9.8-9.82,14.51-14.62,1.95-2-1.1-5-3.05-3.05h0Z"/><path class="cls-1" d="M217.16,1017.21q4.57-5.55,8.68-11.46a2.2,2.2,0,0,0-.77-3,2.79,2.79,0,0,0-3.31,0c-2.24,1.6-.09,5.34,2.18,3.73h-1l-0.77-3q-3.79,5.46-8,10.59c-1.75,2.13,1.28,5.2,3.05,3.05h0Z"/><path class="cls-1" d="M206.4,1006.76a103.34,103.34,0,0,0,8-9.15c0.85-1.15,1.42-2.39.8-3.79a2.82,2.82,0,0,0-3.54-1.57c-2.65.81-1.52,5,1.15,4.16l0.44-.13-1.66-.22-0.1-.06-0.22-1.66c-0.21,1.54-2.62,3.53-3.63,4.69q-2.08,2.39-4.25,4.69c-1.9,2,1.15,5.08,3.05,3.05h0Z"/><path class="cls-1" d="M195.64,998.19l9.77-13.9c1.6-2.28-2.14-4.43-3.73-2.18L191.92,996c-1.6,2.28,2.14,4.43,3.73,2.18h0Z"/><path class="cls-1" d="M185.78,987.69l8.43-11.6c1.63-2.25-2.11-4.41-3.73-2.18l-8.43,11.6c-1.63,2.25,2.11,4.41,3.73,2.18h0Z"/><path class="cls-1" d="M178.81,982.32l4.71-6.45c1.23-1.68,3.5-3.8,3.74-5.94a2.64,2.64,0,1,0-5.25-.52c-0.3,2.76,4,2.74,4.32,0l0-.29L185.29,971l-0.44.16-1.53-.63,0.26,0.23L183,969.22c0,0.73-1.35,2-1.77,2.58l-1.94,2.66-4.16,5.69c-1.64,2.25,2.1,4.4,3.73,2.18h0Z"/><path class="cls-1" d="M210.33,1016a43.76,43.76,0,0,1-36.43,13.19c-2.76-.29-2.74,4,0,4.32A47.83,47.83,0,0,0,213.38,1019c1.93-2-1.12-5.06-3.05-3.05h0Z"/><path class="cls-1" d="M199.81,1006.6a106,106,0,0,1-29.15,21.2c-2.49,1.23-.31,5,2.18,3.73a109.48,109.48,0,0,0,30-21.88c1.94-2-1.11-5-3.05-3.05h0Z"/><path class="cls-1" d="M170.18,1026.4q6.54-8.42,13.53-16.48c2.24-2.56,4.54-5.06,6.81-7.59,1.21-1.34,2.42-2.31,2.29-4.21a2.23,2.23,0,0,0-2.16-2.16l-0.35,0a2.17,2.17,0,0,0-1.86,1.07l-0.24.33a2.16,2.16,0,0,0,.34,2.61l0.18,0.17c2,1.89,5.09-1.15,3.05-3.05l-0.18-.17,0.34,2.61,0.24-.33-1.86,1.07,0.35,0-2.16-2.16c0.09,1.28-4.46,4.93-5.39,6q-2.77,3.12-5.48,6.3-5.4,6.36-10.51,13c-1.68,2.17,1.35,5.24,3.05,3.05h0Z"/><path class="cls-1" d="M162.77,1006.06c3.59-6.62,6.82-15.9,13.29-20.25,2.29-1.54.14-5.28-2.18-3.73-7.31,4.91-10.78,14.33-14.84,21.8-1.33,2.44,2.4,4.62,3.73,2.18h0Z"/><path class="cls-1" d="M183,989q-12,12.69-23.68,25.63c-1.86,2.06,1.18,5.12,3.05,3.05Q174,1004.74,186,992.05c1.91-2-1.14-5.08-3.05-3.05h0Z"/><path class="cls-1" d="M679.81,1171.84a17.29,17.29,0,1,0,15.9,18.58,17.31,17.31,0,0,0-15.9-18.58h0Zm-2,26.21a9,9,0,1,1,9.67-8.27,9,9,0,0,1-9.67,8.27h0Zm-9.54-97.15a4.15,4.15,0,0,1,.63-3.14l20.27-30-4.07-.32a4.15,4.15,0,1,1,.64-8.27l11.15,0.86h0l0.15,0,0.31,0,0.19,0,0.29,0.08,0.17,0.06,0.34,0.14,0.1,0a4.42,4.42,0,0,1,.43.25l0,0,0.1,0.08,0.2,0.15,0.15,0.13,0.14,0.13,0.16,0.17,0.11,0.12,0.15,0.19,0.1,0.13,0.12,0.19,0.09,0.16,0.09,0.18,0.09,0.19,0.06,0.16c0,0.07.06,0.15,0.08,0.23l0,0.14,0.06,0.25,0,0.15c0,0.08,0,.16,0,0.25s0,0.12,0,.17,0,0.15,0,.22,0,0.15,0,.23,0,0.09,0,.14v0c0,0.08,0,.16,0,0.24s0,0.11,0,.17,0,0.13,0,.2l0,0.2,0,0.13c0,0.09-.06.18-0.09,0.26l0,0.07c0,0.11-.09.21-0.15,0.31l0,0.05-0.18.3v0l-21.9,32.45,22.68,14.86a4.14,4.14,0,0,1,1.23,5.68,4,4,0,0,1-.21.9l-9.95,28a4.15,4.15,0,1,1-7.82-2.77l9.47-26.65L670,1103.54a4.14,4.14,0,0,1-1.79-2.65h0ZM626,1204.18l13.53-26.09c5.29-10.18,14.38-23.56,32.27-22.17l13.24,1c10.15,0.79,17.41-4.51,24.27-17.72l13.53-26.09a4.15,4.15,0,0,1,7.36,3.82L716.69,1143c-5.29,10.18-14.38,23.56-32.27,22.17l-13.24-1c-10.15-.79-17.41,4.51-24.27,17.72L633.38,1208a4.15,4.15,0,0,1-7.36-3.82h0Zm-31.29-38.94a17.29,17.29,0,1,0,15.9,18.58,17.31,17.31,0,0,0-15.9-18.58h0Zm-2,26.21a9,9,0,1,1,9.67-8.27,9,9,0,0,1-9.67,8.27h0Zm-13.62-81.52a4.15,4.15,0,0,1,2.09-5.43l24.7-11.18-16.63-35.44v0c-0.05-.11-0.1-0.22-0.14-0.33l0-.06c0-.11-0.07-0.22-0.1-0.33l0-.07c0-.09,0-0.18-0.05-0.27s0-.09,0-0.14,0-.14,0-0.21,0-.14,0-0.21,0-.11,0-0.17,0-.16,0-0.24,0,0,0,0,0-.09,0-0.14,0-.15,0-0.22,0-.14,0-0.22l0-.17c0-.08,0-0.16.07-0.24l0-.14,0.1-.24,0.06-.14,0.11-.21,0.09-.14,0.12-.18,0.12-.16,0.11-.14,0.15-.17,0.12-.12,0.17-.16,0.13-.11,0.18-.14,0.16-.11,0.17-.11,0.22-.11,0.11-.06h0a4,4,0,0,1,.46-0.18l0.1,0,0.36-.09,0.17,0,0.3,0h0.68l11.15,0.86a4.15,4.15,0,0,1-.64,8.27l-4.07-.32,15.39,32.8a4.15,4.15,0,0,1-2,5.54l-25.56,11.57,5.25,27.8a4.15,4.15,0,1,1-8.15,1.54l-5.51-29.2a4.07,4.07,0,0,1-.07-0.92h0Zm-38.4,87.34,13.84-26.06c5.4-10.16,14.69-23.5,33-22.08l13.59,1.05c18.28,1.42,25.4,16,29.17,26.9a4.15,4.15,0,0,1-7.84,2.72c-4.9-14.15-11.47-20.53-22-21.35l-13.59-1.05c-10.5-.81-18,4.48-25,17.71L548,1201.15a4.15,4.15,0,1,1-7.33-3.89h0Zm78.62-85.39a4.15,4.15,0,0,1,6.88-4.62l3.2,4.77a4.15,4.15,0,0,1-6.88,4.62Zm25.8,29.65,3.89-4.21a4.15,4.15,0,1,1,6.09,5.63l-3.89,4.21a4.15,4.15,0,1,1-6.09-5.63h0Zm-95.29-7.39,3.9-4.21a4.15,4.15,0,1,1,6.09,5.63l-3.9,4.21a4.15,4.15,0,1,1-6.09-5.63h0Zm173.26,43.47a4.15,4.15,0,0,1-6.89,4.62l-3.2-4.76a4.15,4.15,0,1,1,6.88-4.62Zm-6.78-88.74a4.15,4.15,0,1,1,6.88-4.62l3.2,4.76a4.15,4.15,0,1,1-6.88,4.62Zm0,0"/><path class="cls-1" d="M898.89,1226.11A52,52,0,0,0,938,1188.74a49.3,49.3,0,0,0-.84-28.28,56.56,56.56,0,0,0-2.3-6,50.63,50.63,0,0,0,34,5.4,52,52,0,0,0,39.93-36.47,3.35,3.35,0,0,0-3.86-4.23l-31.17,6.16a52,52,0,0,0,8.89-50.71,3.34,3.34,0,0,0-5.44-1.32l-0.17.17-21.6,23.31a52,52,0,0,0-22.61-46.25,3.35,3.35,0,0,0-3.27-.29,3.35,3.35,0,0,0-1.94,2.65L919.23,1123l-29.32-36.07a3.34,3.34,0,0,0-4-4.89l-32.2-39.61a3.34,3.34,0,0,0-4-4.89l-16-19.69a3.35,3.35,0,0,0-4.71-.49l-0.18.15a3.35,3.35,0,0,0-.31,4.55l0.15,0.18,16,19.65-10,9.36a3.35,3.35,0,1,0,4.57,4.89l9.67-9,31.94,39.3-4.23,4a3.35,3.35,0,1,0,4.57,4.89l3.89-3.64,33,40.64-0.46,3.82-3.84.2-17.34-16.15,1-.93a3.35,3.35,0,0,0-4.57-4.89l-1.34,1.25-37-34.53,6.78-6.34a3.35,3.35,0,0,0-4.57-4.89l-7.12,6.65-39.67-37a3.35,3.35,0,0,0-4.56,0l-0.17.17a3.35,3.35,0,0,0,.17,4.73l39.54,36.84a3.34,3.34,0,0,0,4.61,4.3l37.35,34.8a3.34,3.34,0,0,0,4.61,4.3l13,12.14L834,1140.36a3.34,3.34,0,0,0-2.11.9,3.29,3.29,0,0,0-.66.86,3.35,3.35,0,0,0,.06,3.29,52,52,0,0,0,44.62,25.69l-24.72,20-0.18.16a3.34,3.34,0,0,0,1,5.51,52,52,0,0,0,51.19-5.45L894.94,1222A3.35,3.35,0,0,0,898.89,1226.11Zm79-143.73a45.47,45.47,0,0,1-46.51,55.2,52.14,52.14,0,0,0,21.78-28.51Zm-44.37-22.79a45.48,45.48,0,0,1-8.87,74.18Zm-2.31,84.69A51.94,51.94,0,0,0,964.73,1134l35.68-7.05a45.33,45.33,0,0,1-32.86,26.42C955.1,1155.78,942.3,1152.51,931.24,1144.28Zm-90.94,2.46,74.61-3.84A45.47,45.47,0,0,1,840.3,1146.74Zm19.74,45.8,28.3-22.87a52.13,52.13,0,0,0,29.92-19.8A45.47,45.47,0,0,1,860,1192.54Zm52.34-9.67a51.94,51.94,0,0,0,12.56-32.65c7.34,11.56,9.81,24.74,6.57,36.77a45.33,45.33,0,0,1-28.58,31Z"/><path class="cls-1" d="M216.24,649.58a3.86,3.86,0,0,0-2.13,4.08l1.47,9.28c0,0.06,0,.12,0,0.18l2.33,14.68-18.07,2.87-0.93-5.84a56,56,0,0,0,8.82-30.35,3.86,3.86,0,0,0-4.46-3.79L195,642l-19.86-47.84,0-.07-7.46-18a3.85,3.85,0,0,0-5-2.08h0L157,576.37a21.48,21.48,0,0,0-11.58,28l8,19.32-2.1.87a21.48,21.48,0,0,0-11.77,27.54,36.54,36.54,0,0,0-9.7,6.44l-14.52,2.31a36.66,36.66,0,0,0-27.25,20.26,22.57,22.57,0,0,0-20.52-12.19,3.86,3.86,0,1,0,.19,7.71,14.82,14.82,0,0,1,13.2,7.51,22.29,22.29,0,0,0-11.42-2.83,3.86,3.86,0,0,0,.19,7.72,14.83,14.83,0,0,1,14.95,12.48l6.28,39.57A23.69,23.69,0,0,0,118,760.75l6.52-1a3.86,3.86,0,0,0,3.21-4.42l-3.43-21.61L170,726.43a36.72,36.72,0,0,0,30.87-38.12l18.27-2.9,2.33,14.68c0,0.06,0,.12,0,0.18l1.47,9.28a3.86,3.86,0,0,0,3.28,3.22M116.67,734.9l2.83,17.8-2.71.43a16,16,0,0,1-18.25-13.25l-0.33-2.05Zm52.13-16.09L97,730.21l-4.54-28.59a29,29,0,0,1,24.05-33.13l6.23-1a36.49,36.49,0,0,0-4.3,23.78l1.8,11.31a3.86,3.86,0,0,0,4.42,3.21l35.87-5.69a55.9,55.9,0,0,0,31.93-16.93l0.4,2.52a29,29,0,0,1-24.05,33.13h0ZM169,653.92h0.16l14.72-2.34a28.88,28.88,0,0,1-23.8,23.88L137.8,679a3.86,3.86,0,1,0,1.21,7.62l22.34-3.55a36.48,36.48,0,0,0,30.51-32.76l8-1.27a48.7,48.7,0,0,1-40.54,43.44l-32.06,5.09-1.19-7.5a28.94,28.94,0,0,1,8-24.86,3.73,3.73,0,0,0,.6-0.59,28.8,28.8,0,0,1,11-6.6l0.3-.1a28.77,28.77,0,0,1,4.19-1Zm-22.18-4.23,0-.06a13.77,13.77,0,0,1,7.41-17.92l2.1-.87,6.73,16.22-14.18,2.25c-0.69.11-1.37,0.24-2,.38h0Zm40.3-6.46-16.24,2.58L165,631.56a31.9,31.9,0,0,0,10.9-15.45ZM168,597v0l0,0.06a24.3,24.3,0,0,1-6.1,27l-9.41-22.68a13.76,13.76,0,0,1,7.41-17.92l2.1-.87ZM110.13,709.45l0.13,0.84a3.86,3.86,0,0,1-7.62,1.21l-0.13-.84a3.86,3.86,0,0,1,7.62-1.21h0Zm0,0"/><path class="cls-1" d="M1150.67,513.26a19.36,19.36,0,0,0,1.33-14.17c-2.74-9.73-12.39-15.67-21.52-13.24l-38.7,10.32a3.5,3.5,0,0,1-4.16-2.64l-1.43-5.35,13.87-3.7c12.46-3.32,22-13.16,25.44-26a12.86,12.86,0,0,0,1.4.52,11.57,11.57,0,0,0,9.51-1.19,12.63,12.63,0,0,0,5.67-8.1,14.32,14.32,0,0,0-.19-7.08,25,25,0,0,0,2.74-3.42,29.07,29.07,0,0,0-11-41.37,25.41,25.41,0,0,0-4.08-1.6,13.78,13.78,0,0,0-9.15-9.81,11.56,11.56,0,0,0-9.51,1.19,12.63,12.63,0,0,0-5.66,8.1,14.31,14.31,0,0,0,.13,6.89l0.05,0.17a26.55,26.55,0,0,0-6.45,12.06,28.55,28.55,0,0,0-.77,6l-26.7,7.12a12.86,12.86,0,0,0-15.09-6.54l-2.12.57,20,75.1c2.65,9.92,12.23,16,21.37,13.57l38.92-10.38a3.5,3.5,0,0,1,4.14,2.58,3.73,3.73,0,0,1-.27,2.7,3.4,3.4,0,0,1-2.12,1.76l-7.28,1.94a6.6,6.6,0,0,0-4.15,3.38,7.77,7.77,0,0,0-.59,5.64c1.07,4,4.93,6.45,8.61,5.46l7.4-2a16.39,16.39,0,0,0,10.37-8.52h0Zm-12.89-64.88a8.19,8.19,0,0,1-3.67,5.26,7.51,7.51,0,0,1-6.17.77,8.74,8.74,0,0,1-5.24-4.5,23.29,23.29,0,0,0,15.29-4,9.22,9.22,0,0,1-.21,2.48h0Zm5.69-17a21.83,21.83,0,0,0-10-11.36,21.84,21.84,0,0,0,3-14.83,24.39,24.39,0,0,1,7,26.19h0Zm-34-34.37a8.19,8.19,0,0,1,3.67-5.26,7.51,7.51,0,0,1,6.17-.77,8.74,8.74,0,0,1,5.14,4.32,23.29,23.29,0,0,0-15.21,4.11,9.26,9.26,0,0,1,.22-2.4h0Zm8.32,3.61a19.83,19.83,0,0,1,11.56.45,3.66,3.66,0,0,1,2.32,2.51v0a17,17,0,0,1-3.47,15.7l-2.45,2.76,3.5,1.17a17,17,0,0,1,10.83,11.89v0a3.66,3.66,0,0,1-.76,3.34,19.83,19.83,0,0,1-9.8,6.15,20.82,20.82,0,0,1-20.41-6.23,24.51,24.51,0,0,1-5.93-22.23,20.82,20.82,0,0,1,14.6-15.56h0Zm-18.65,28.55c0.13,0.5.28,1,.44,1.49l-25.7,6.85a13,13,0,0,0-3.82-4.22l28.37-7.56a30.08,30.08,0,0,0,.7,3.45h0Zm-39.38-3.46a8.18,8.18,0,0,1,8.39,5.77l0.26,0.8a13.29,13.29,0,0,0-7.27-1.4ZM1070.7,441l0.73,2.06,30-8a28.82,28.82,0,0,0,4.66,6.62A26.56,26.56,0,0,0,1117.7,449l0.07,0.3a14.31,14.31,0,0,0,3.78,6.54,32,32,0,0,1-20.65,23.46,18.53,18.53,0,0,0,2.21-5.91,20.21,20.21,0,0,0-.33-9.09c-2.24-8.39-9.31-14.11-17-14.51l16.46-4.39-1.23-4.61L1066.27,450l-3.85-14.46a8.65,8.65,0,0,1,8.29,5.47h0Zm-3.21,13.59,8.45-2.25a17.66,17.66,0,0,0-6.17,6.65c-0.26.49-.49,1-0.71,1.49Zm8.37,31.38-3.61-13.55a15.18,15.18,0,0,1,1.39-11,13.56,13.56,0,0,1,7.44-6.34c0.27-.09.56-0.18,0.84-0.26,7.11-1.9,14.56,2.82,16.61,10.5a15.17,15.17,0,0,1,.25,6.82,13.54,13.54,0,0,1-5.56,8.64,12.29,12.29,0,0,1-4,1.59L1075.86,486h0Zm55.81,33.15a2.63,2.63,0,0,1-3.14-2,2.82,2.82,0,0,1,.22-2.05,2.4,2.4,0,0,1,1.51-1.23l7.28-1.94a7.66,7.66,0,0,0,4.78-3.94,8.64,8.64,0,0,0,.61-6.33c-1.24-4.38-5.54-7.06-9.59-6l-38.92,10.38c-6.8,1.81-13.93-2.72-15.9-10.1l-1.43-5.35,4.86-1.3,1.43,5.35c1.19,4.47,5.51,7.21,9.63,6.12l38.7-10.32c6.82-1.82,14,2.59,16.07,9.83l0.06,0.21a14.38,14.38,0,0,1-1,10.34,12.19,12.19,0,0,1-7.72,6.34Zm0,0"/><path class="cls-1" d="M1125.36,410.27c-1.3-4.89-6-7.89-10.53-6.69s-7.11,6.15-5.8,11,6,7.89,10.53,6.69,7.11-6.15,5.8-11h0Zm-12.09,3.22a4.07,4.07,0,1,1,5.06,3.21,4.25,4.25,0,0,1-5.06-3.21h0Zm0,0"/><path class="cls-1" d="M1114.95,436.84c1.3,4.89,6,7.89,10.53,6.69s7.11-6.16,5.8-11-6-7.89-10.53-6.69-7.11,6.15-5.8,11h0Zm12.09-3.22a4.07,4.07,0,1,1-5.06-3.22,4.25,4.25,0,0,1,5.06,3.22h0Zm0,0"/><path class="cls-1" d="M791.68,149.76l4-9.17c0.53-1.22,1-2.46,1.59-3.67a33.55,33.55,0,0,0,2-3.73,3.26,3.26,0,0,0,4.09,3.12l17.39-5.11c4-1.17,2.29-7.41-1.72-6.23l-17.39,5.11,4.09,3.12a6.32,6.32,0,0,0-9.15-5.49c-2.46,1.18-3.77,3.6-4.87,6-2,4.22-3.71,8.56-5.56,12.83-1.64,3.78,3.93,7.07,5.58,3.26h0Z"/><path class="cls-1" d="M803.42,131.31c0.93-2.17,1.91-4.32,3-6.43,1.19-2.31,1.78-5.32,4.35-4,1.49,0.78,2.79,3.59,3.89,5q2.29,2.88,4.84,5.54a84.09,84.09,0,0,0,21.58,16.09c3.68,1.93,6.95-3.64,3.26-5.58-11.26-5.92-19.73-14-27.57-23.89-2.47-3.11-6.53-6.5-10.67-4s-6.45,9.81-8.26,14c-1.62,3.78,3.94,7.08,5.58,3.26h0Z"/><path class="cls-1" d="M902.17,121l-43.51-9.62a3.3,3.3,0,0,0-3.65,1.49l-14.57,29.58a3.3,3.3,0,0,0,1.16,4.42l26.94,15.84c3.59,2.11,6.85-3.47,3.26-5.58l-26.94-15.84,1.16,4.42,14.57-29.58-3.65,1.49,43.51,9.62c4.05,0.9,5.78-5.33,1.72-6.23h0Z"/><path class="cls-1" d="M790.32,146.47a80.44,80.44,0,0,0-7.7-8.7,3.28,3.28,0,0,0-5.08.65,106.33,106.33,0,0,0-7.64,12.13c-1.6,3-3.37,6.36-1.83,9.79,2.87,6.39,13.75,7.7,19.3,10.58,3.69,1.91,7-3.66,3.26-5.58a63.68,63.68,0,0,0-6.41-2.82c-2.44-.94-7-1.73-8.78-3.67-3.32-3.63,5.33-13.88,7.69-17.17l-5.08.65a69.27,69.27,0,0,1,6.69,7.4c2.51,3.25,8.12,0,5.58-3.26h0Z"/><path class="cls-1" d="M792.79,169.38c3.8-12.59,19.86-10.52,28.85-5.48,4.13,2.32,8.9,6.19,8.54,11.42-0.31,4.57-3.93,8.63-5.06,13.08-1,4,5.21,5.75,6.23,1.72,1.7-6.7,6.92-11.89,4.82-19.26-1.87-6.56-8-11.18-14-13.89-12.71-5.8-30.92-5-35.66,10.68-1.2,4,5,5.7,6.23,1.72h0Z"/><path class="cls-1" d="M826.61,192.05c7,3.78,12.93,9.18,19.76,13.17,3.6,2.1,6.86-3.48,3.26-5.58-6.83-4-12.8-9.39-19.76-13.17-3.66-2-6.92,3.59-3.26,5.58h0Z"/><path class="cls-1" d="M897.38,121.94c-12.43,13.26-22.31,29.13-31.92,44.47-7,11.21-14.36,22.53-20.25,34.39-1.85,3.71,3.73,7,5.58,3.26,5.71-11.49,12.81-22.46,19.59-33.33,9.51-15.24,19.23-31.07,31.57-44.22,2.84-3-1.72-7.61-4.57-4.57h0Z"/><path class="cls-1" d="M822.61,187.22c4-7.36,3.25-17.47-4.3-22.26-8.63-5.47-16.84-.24-22,7.2s-5.18,17.71,3.92,22c8.1,3.85,16.19.45,21.65-5.84,2.71-3.13-1.84-7.72-4.57-4.57-2.9,3.34-5.68,5.71-10.37,5.51-7.29-.31-9.35-6.69-5.92-12.51,2.74-4.65,7.67-9.88,13.39-6.58,4.86,2.81,5,9.27,2.58,13.77-2,3.65,3.59,6.92,5.58,3.26h0Z"/><path class="cls-1" d="M900.3,127.08a647.61,647.61,0,0,1,150.47,100.55c3.1,2.76,7.68-1.79,4.57-4.57A653.63,653.63,0,0,0,903.56,121.5c-3.73-1.8-7,3.77-3.26,5.58h0Z"/><path class="cls-1" d="M984.49,288.06q8.47,6,16.79,12.23c3.33,2.49,6.56-3.12,3.26-5.58q-8.33-6.21-16.79-12.23c-3.4-2.41-6.63,3.19-3.26,5.58h0Z"/><path class="cls-1" d="M848.35,206.33c39.59,18.14,76.92,40.61,113.23,64.54,3.48,2.3,6.72-3.3,3.26-5.58-36.31-23.94-73.64-46.41-113.23-64.54-3.75-1.72-7,3.85-3.26,5.58h0Z"/><path class="cls-1" d="M1008.18,299.7a106.13,106.13,0,0,1,51-70.21c3.61-2.07.36-7.65-3.26-5.58a112.47,112.47,0,0,0-54,74.07c-0.85,4.06,5.38,5.79,6.23,1.72h0Z"/><path class="cls-1" d="M889.41,171.1c44.82,28.61,89.28,57.77,133.74,86.94,3.49,2.29,6.73-3.31,3.26-5.58-44.45-29.17-88.92-58.33-133.74-86.94-3.52-2.24-6.76,3.35-3.26,5.58h0Z"/><path class="cls-1" d="M888.51,166.63c-3.91,4.6-8,9-11.25,14.06l4.42-1.16c-4.75-3.16-9.6-6.17-14.33-9.36-3.46-2.33-6.7,3.27-3.26,5.58,4.73,3.19,9.58,6.2,14.33,9.36a3.28,3.28,0,0,0,4.42-1.16c3-4.64,6.68-8.57,10.24-12.75,2.68-3.15-1.87-7.74-4.57-4.57h0Z"/><path class="cls-1" d="M893.83,169.94c5.53-12.67,13.34-25.92,22.59-36.23,2.77-3.09-1.78-7.67-4.57-4.57-9.64,10.74-17.84,24.33-23.6,37.54-1.65,3.77,3.92,7.07,5.58,3.26h0Z"/><path class="cls-1" d="M931.65,140.49c-9.73,10.62-17,23.58-22.22,36.92-1.53,3.87,4.72,5.55,6.23,1.72,4.83-12.25,11.64-24.33,20.56-34.07,2.81-3.06-1.75-7.64-4.57-4.57h0Z"/><path class="cls-1" d="M954.82,153.21c-10.27,11.87-19.5,25.39-25.49,39.95-1.58,3.84,4.67,5.52,6.23,1.72,5.53-13.44,14.35-26.14,23.82-37.09,2.71-3.13-1.84-7.72-4.57-4.57h0Z"/><path class="cls-1" d="M974.68,166.7c-5.18,6.79-10,13.83-14.73,21q-3.4,5.16-6.65,10.42c-1.88,3.05-4,6.05-3.58,9.78,0.49,4.08,7,4.13,6.46,0-0.39-3.28,3-7,4.63-9.63q3.19-5.07,6.53-10c4.14-6.19,8.4-12.31,12.92-18.23,2.52-3.3-3.09-6.53-5.58-3.26h0Z"/><path class="cls-1" d="M993.91,177.29c-5.26,6.44-10.15,13.17-14.82,20-3.94,5.79-11.1,13.64-10.84,21,0.15,4.15,6.61,4.17,6.46,0-0.13-3.62,3.26-7.52,5.15-10.45s3.78-5.78,5.73-8.62c4.08-5.95,8.32-11.79,12.89-17.38,2.61-3.2-1.94-7.79-4.57-4.57h0Z"/><path class="cls-1" d="M1011.38,193.21a191.74,191.74,0,0,0-24.32,33.16c-2.09,3.61,3.49,6.86,5.58,3.26a183.79,183.79,0,0,1,23.31-31.85c2.8-3.07-1.76-7.65-4.57-4.57h0Z"/><path class="cls-1" d="M1029.11,206.84a229.24,229.24,0,0,0-24.22,33.31c-2.14,3.58,3.45,6.83,5.58,3.26a219.9,219.9,0,0,1,23.21-32c2.73-3.12-1.83-7.71-4.57-4.57h0Z"/><path class="cls-1" d="M978.3,265.91c-7.86-1.12-17.44,1.41-21.32,8.95-4.08,7.91-.82,17.91,7.42,21.44,9,3.86,17.06-1.94,21.38-9.74,5-9.11,2.47-17.52-7.47-20.65-4-1.25-5.68,5-1.72,6.23,6.93,2.19,6.1,7.75,2.43,13.12-3,4.46-8.16,7.81-13.36,4.45a9.24,9.24,0,0,1-1.88-13.46c2.83-3.37,8.58-4.72,12.81-4.12,4.07,0.58,5.83-5.64,1.72-6.23h0Z"/><path class="cls-1" d="M870.23,116.18l1.62-2.87q1.33-1,.52-2.08c0.8-.61,6,0.88,7.11,1,4.37,0.7,8.73,1.5,13.05,2.45A151.86,151.86,0,0,1,918.77,123l-1.93-4.75c-2.09,3-3.77,6.25-5.86,9.25-2.38,3.42,3.22,6.65,5.58,3.26,2.09-3,3.77-6.25,5.86-9.25,1.33-1.91-.18-4-1.93-4.75a160,160,0,0,0-33.15-9.69c-4.73-.87-10.24-2.49-15-2.44-4.31,0-5.84,5.08-7.64,8.26-2.05,3.62,3.53,6.89,5.58,3.26h0Z"/><path class="cls-1" d="M919.26,123.17c48.45,28.48,94,61.57,138.46,95.8l-1.16-4.42a24.45,24.45,0,0,1-6.22,7.25c-3.24,2.6,1.35,7.15,4.57,4.57a29,29,0,0,0,7.23-8.56,3.34,3.34,0,0,0-1.16-4.42c-44.51-34.22-90-67.32-138.46-95.8-3.59-2.11-6.85,3.47-3.26,5.58h0Z"/><path class="cls-1" d="M862.11,122c-3.49,5.93-7,11.8-10.12,17.93-1.89,3.7,3.69,7,5.58,3.26,3.13-6.13,6.64-12,10.12-17.93,2.11-3.59-3.47-6.85-5.58-3.26h0Z"/><path class="cls-1" d="M864.2,126.4l17.37,3.92-1.93-4.75c-3.55,5.26-7.13,10.52-10.77,15.72-0.94,1.34-2.1,2.67-2.92,4.09a5.57,5.57,0,0,0-.68.9c-0.22,1.49,3.32.56,2.69-.36-0.82-1.19-4.27-2.44-5.54-3.2a43.12,43.12,0,0,1-5.36-3.4c-3.19-2.62-7.78,1.92-4.57,4.57A55.66,55.66,0,0,0,865,151.66c3.59,1.56,5-.91,6.92-3.54,4.61-6.3,8.94-12.82,13.31-19.29a3.25,3.25,0,0,0-1.93-4.75l-17.37-3.92c-4.05-.91-5.78,5.32-1.72,6.23h0Z"/><path class="cls-1" d="M908,90.53a31.27,31.27,0,0,1-6.23-16.23c-0.33-4.12-6.79-4.15-6.46,0a37.45,37.45,0,0,0,7.11,19.49c2.44,3.32,8,.1,5.58-3.26h0Z"/><path class="cls-1" d="M980.25,140.54a123.6,123.6,0,0,1,6-35.84c1.28-4-5-5.67-6.23-1.72a129.83,129.83,0,0,0-6.24,37.56c-0.08,4.16,6.38,4.16,6.46,0h0Z"/><path class="cls-1" d="M1008.77,165.49a156.3,156.3,0,0,1,44.19,6.44c4,1.18,5.7-5.05,1.72-6.23a162.76,162.76,0,0,0-45.91-6.67c-4.16,0-4.17,6.46,0,6.46h0Z"/><path class="cls-1" d="M1071.08,220.37c23.86-4.57,47.64,2.83,70.21,9.94l0.86-6.35-1.43.12c-4.11.35-4.15,6.81,0,6.46l1.43-.12c3.56-.3,4.47-5.21.86-6.35-23.82-7.51-48.52-14.76-73.65-9.94-4.08.78-2.35,7,1.72,6.23h0Z"/><path class="cls-1" d="M1052.77,246.73a210.06,210.06,0,0,1,53.54,19.5c3.68,1.94,6.95-3.64,3.26-5.58a216.53,216.53,0,0,0-55.08-20.15c-4.05-.88-5.79,5.35-1.72,6.23h0Z"/><path class="cls-1" d="M1055.51,281.31a82.22,82.22,0,0,1,23.58,23.81c2.26,3.47,7.86.24,5.58-3.26a90.14,90.14,0,0,0-25.9-26.13c-3.47-2.31-6.71,3.29-3.26,5.58h0Z"/><path class="cls-1" d="M839.91,97.46a127.45,127.45,0,0,0-59.37-22c-4.13-.44-4.1,6,0,6.46A120.86,120.86,0,0,1,836.64,103c3.42,2.38,6.66-3.22,3.26-5.58h0Z"/><text class="cls-3" transform="translate(373.85 590.08)">TECNOLOGIA</text><text class="cls-4" transform="translate(368.16 669.12)">de</text><text class="cls-5" transform="translate(457.69 690.44)">A<tspan class="cls-6" x="85.22" y="0">L</tspan><tspan x="142.15" y="0">TURA</tspan></text></svg>